<?xml version="1.0" standalone="no"?>
<!DOCTYPE svg PUBLIC "-//W3C//DTD SVG 20010904//EN"
 "http://www.w3.org/TR/2001/REC-SVG-20010904/DTD/svg10.dtd">
<svg version="1.0" xmlns="http://www.w3.org/2000/svg"
 width="512.000000pt" height="512.000000pt" viewBox="0 0 512.000000 512.000000"
 preserveAspectRatio="xMidYMid meet">
<metadata>
Created by potrace 1.16, written by Peter Selinger 2001-2019
</metadata>
<g transform="translate(0.000000,512.000000) scale(0.100000,-0.100000)"
fill="#000000" stroke="none">
<path d="M3593 5103 c-57 -20 -138 -94 -171 -157 -24 -45 -27 -62 -27 -146 0
-84 3 -101 27 -146 35 -67 115 -138 179 -159 79 -27 199 -17 268 20 237 130
220 471 -29 584 -55 25 -183 27 -247 4z"/>
<path d="M2256 4998 c-14 -13 -54 -74 -88 -137 l-63 -115 -112 -61 c-143 -78
-153 -87 -153 -141 0 -52 6 -56 157 -138 l110 -59 59 -110 c82 -151 86 -157
138 -157 54 0 63 10 141 153 l61 112 119 66 c140 77 163 101 149 156 -8 36
-17 42 -138 109 l-129 72 -69 127 c-70 126 -88 145 -138 145 -10 0 -30 -10
-44 -22z"/>
<path d="M720 4720 l0 -80 80 0 80 0 0 80 0 80 -80 0 -80 0 0 -80z"/>
<path d="M740 4313 c-47 -8 -153 -44 -204 -70 -242 -123 -421 -357 -504 -661
-24 -90 -26 -112 -26 -302 0 -190 2 -212 26 -302 101 -372 345 -637 662 -718
72 -18 111 -20 423 -20 400 0 431 4 592 81 56 28 104 49 106 47 1 -2 44 -75
94 -163 l91 -161 0 -1022 0 -1022 80 0 80 0 0 1057 0 1057 -160 281 -160 281
0 142 0 142 358 0 357 0 23 -34 23 -34 -37 -49 c-43 -56 -76 -127 -94 -202
-14 -61 -9 -236 8 -253 7 -7 33 -5 84 7 l74 18 -1 101 c0 94 2 106 32 167 20
40 52 83 83 112 43 40 50 51 50 85 0 34 -15 58 -120 198 l-119 159 -1 80 0 80
168 -168 167 -167 18 -77 c22 -100 75 -228 128 -312 23 -36 42 -70 42 -76 0
-5 -46 -117 -101 -247 l-102 -237 0 -1055 0 -1056 80 0 80 0 0 1024 0 1024 88
206 89 206 19 -21 c58 -64 214 -147 338 -179 72 -18 111 -20 426 -20 315 0
354 2 426 20 317 81 561 346 662 718 24 90 26 112 26 302 0 190 -2 212 -26
302 -103 377 -361 653 -679 723 -65 14 -128 16 -445 13 -367 -4 -369 -4 -439
-30 -197 -71 -344 -188 -462 -365 l-55 -83 -448 0 -448 0 -58 88 c-128 191
-302 319 -508 372 -73 18 -108 20 -430 19 -193 -1 -362 -4 -376 -6z m52 -232
c-129 -129 -226 -300 -280 -499 -24 -90 -26 -112 -26 -302 0 -190 2 -212 26
-302 54 -199 148 -366 279 -497 l71 -71 -43 0 c-24 0 -82 13 -128 30 -245 85
-441 328 -502 623 -25 124 -25 310 0 434 48 229 180 434 357 552 82 55 203
100 273 101 l43 0 -70 -69z m2880 0 c-129 -129 -226 -300 -280 -499 -24 -90
-26 -112 -26 -302 0 -190 2 -212 26 -302 54 -199 148 -366 279 -497 l71 -71
-43 0 c-65 0 -203 52 -281 106 -80 54 -179 158 -226 237 -97 162 -142 327
-142 527 0 261 80 479 238 651 114 124 290 217 411 219 l43 0 -70 -69z m-1252
-421 c-19 -19 -20 -33 -20 -258 0 -205 2 -241 17 -261 l16 -24 -73 5 c-64 5
-77 9 -97 32 -22 26 -23 34 -23 197 l0 169 -86 0 -86 0 4 -195 c2 -107 -1
-195 -5 -195 -21 0 -46 23 -56 51 -6 18 -11 99 -11 185 l0 154 -80 0 -80 0 0
-190 c0 -149 -3 -190 -13 -190 -28 0 -96 62 -119 108 -19 40 -23 63 -23 152 0
94 3 111 26 155 30 59 86 102 149 114 25 5 165 9 313 10 l267 1 -20 -20z m515
3 c-16 -43 -47 -191 -53 -259 l-7 -74 -176 175 -175 175 209 0 c195 0 209 -1
202 -17z m1531 -97 c174 -81 221 -349 87 -506 -102 -119 -284 -119 -386 0
-168 197 -47 530 193 530 37 0 72 -8 106 -24z m-2944 -233 c3 -93 8 -115 31
-160 l27 -53 -42 0 c-100 0 -160 42 -173 120 -15 89 23 170 88 189 66 19 64
21 69 -96z"/>
<path d="M963 1976 c-10 -13 -45 -73 -77 -133 l-59 -110 -110 -59 c-151 -82
-157 -86 -157 -138 0 -54 10 -63 153 -141 l112 -61 66 -119 c77 -140 101 -163
156 -149 36 8 42 17 109 138 l72 128 128 72 c121 67 130 73 138 109 14 55 -9
79 -149 156 l-119 66 -61 112 c-78 143 -87 153 -141 153 -33 0 -47 -5 -61 -24z"/>
<path d="M3792 1979 c-72 -28 -144 -101 -172 -176 -29 -78 -25 -206 9 -272 99
-190 369 -232 521 -81 159 160 102 452 -105 529 -74 28 -180 28 -253 0z"/>
<path d="M3680 1040 l0 -80 80 0 80 0 0 80 0 80 -80 0 -80 0 0 -80z"/>
</g>
</svg>
