<?xml version="1.0" standalone="no"?>
<!DOCTYPE svg PUBLIC "-//W3C//DTD SVG 20010904//EN"
 "http://www.w3.org/TR/2001/REC-SVG-20010904/DTD/svg10.dtd">
<svg version="1.0" xmlns="http://www.w3.org/2000/svg"
 width="512.000000pt" height="512.000000pt" viewBox="0 0 512.000000 512.000000"
 preserveAspectRatio="xMidYMid meet">
<metadata>
Created by potrace 1.16, written by Peter Selinger 2001-2019
</metadata>
<g transform="translate(0.000000,512.000000) scale(0.100000,-0.100000)"
fill="#000000" stroke="none">
<path d="M1480 5106 c-326 -59 -583 -196 -813 -435 -237 -247 -374 -564 -394
-911 -5 -92 -4 -110 8 -110 10 0 21 25 33 77 10 43 40 123 66 178 191 395 463
662 736 720 187 40 399 2 567 -101 l57 -35 28 19 c155 110 401 159 588 117
215 -48 413 -201 586 -454 119 -175 201 -348 232 -493 4 -16 13 -28 21 -28 12
0 14 15 9 93 -13 210 -56 381 -139 554 -75 157 -162 280 -285 403 -196 196
-420 322 -690 387 -92 22 -131 26 -320 29 -149 2 -238 -1 -290 -10z"/>
<path d="M1133 4455 c-191 -52 -385 -235 -542 -514 -55 -98 -105 -210 -97
-218 7 -7 195 62 251 91 38 20 58 21 368 24 206 2 347 -1 378 -7 40 -9 54 -8
72 3 35 22 126 46 177 46 51 0 141 -24 175 -46 18 -12 32 -13 66 -5 54 13 639
14 694 1 22 -5 90 -29 150 -54 61 -24 123 -48 138 -51 l28 -7 -21 53 c-12 30
-46 99 -77 154 -148 267 -322 445 -503 514 -55 21 -83 25 -180 25 -141 1 -219
-21 -349 -99 -47 -29 -96 -55 -109 -59 -16 -6 -44 5 -112 44 -105 61 -189 97
-261 110 -72 14 -184 11 -246 -5z"/>
<path d="M1673 3695 l-33 -14 0 -83 c0 -153 -42 -259 -141 -353 -103 -99 -247
-145 -410 -131 -136 11 -261 71 -334 160 -56 68 -97 168 -103 247 -2 38 -5 69
-6 69 0 0 -41 -15 -91 -34 -63 -24 -92 -40 -99 -56 -15 -33 9 -240 39 -346
135 -471 562 -806 1101 -865 249 -27 542 25 759 133 165 83 340 228 446 368
138 183 219 420 219 640 0 74 -3 89 -17 95 -10 4 -53 20 -95 36 l-78 28 0 -29
c0 -16 -5 -53 -11 -82 -41 -193 -196 -333 -401 -360 -303 -40 -540 123 -579
398 -6 44 -9 100 -6 125 l6 46 -38 12 c-50 15 -89 13 -128 -4z"/>
<path d="M820 3582 c0 -68 4 -87 31 -140 56 -114 131 -152 298 -152 90 0 113
4 156 24 106 49 156 130 163 264 l5 82 -327 0 -326 0 0 -78z"/>
<path d="M2010 3587 c0 -126 43 -209 138 -265 43 -25 57 -27 168 -30 107 -4
127 -1 172 18 58 25 126 92 149 148 8 20 18 74 21 120 l5 82 -327 0 -326 0 0
-73z"/>
<path d="M119 3451 c-39 -40 -41 -97 -3 -135 24 -23 34 -26 102 -26 l75 0 -7
46 c-3 26 -6 69 -6 95 l0 49 -66 0 c-59 0 -68 -3 -95 -29z"/>
<path d="M3191 3385 l-2 -95 69 0 c54 0 75 4 95 20 51 40 43 126 -14 155 -15
8 -54 15 -87 15 l-59 0 -2 -95z"/>
<path d="M3865 2355 c-39 -38 -34 -92 14 -163 54 -81 97 -169 123 -254 19 -63
22 -97 22 -249 1 -134 4 -180 15 -192 7 -10 10 -17 7 -17 -14 0 -107 52 -161
89 -87 61 -141 76 -270 75 -90 0 -121 -4 -167 -23 -107 -42 -175 -133 -220
-296 -20 -72 -22 -104 -22 -325 0 -244 0 -246 31 -363 36 -133 111 -298 177
-392 57 -79 173 -187 234 -217 40 -20 62 -23 152 -23 105 1 105 1 199 48 84
42 102 47 161 47 59 0 77 -5 161 -47 94 -47 94 -47 199 -48 129 0 170 17 273
114 160 151 269 370 312 629 24 144 17 450 -14 570 -39 154 -99 244 -193 291
-79 40 -102 39 -149 -4 -92 -83 -250 -135 -409 -135 -54 0 -111 3 -128 6 -29
6 -30 7 -17 28 8 12 18 49 21 82 l6 59 75 -4 c136 -6 291 40 363 110 63 62
118 186 139 317 8 50 8 50 -22 56 -85 17 -242 1 -322 -34 -89 -38 -171 -138
-212 -260 -20 -58 -23 -61 -23 -30 -1 60 -36 212 -69 293 -38 97 -100 204
-145 251 -28 30 -40 36 -75 36 -31 0 -48 -6 -66 -25z m-244 -924 c56 -56 23
-141 -56 -141 -88 0 -114 117 -35 157 38 19 59 16 91 -16z m-93 -361 c26 -25
29 -38 36 -166 7 -119 28 -237 62 -350 31 -105 30 -119 -6 -156 -26 -25 -36
-29 -62 -24 -18 3 -40 14 -50 22 -54 50 -117 350 -118 565 0 67 3 79 25 103
30 32 81 35 113 6z"/>
<path d="M1550 1825 l0 -289 91 -138 c51 -76 95 -138 98 -138 3 0 48 63 99
140 l92 140 0 287 0 288 -190 0 -190 0 0 -290z"/>
<path d="M1005 1755 c-71 -30 -134 -56 -139 -58 -12 -4 505 -896 519 -896 6 0
63 67 129 150 l119 150 -237 354 c-130 195 -242 355 -249 354 -6 0 -70 -25
-142 -54z"/>
<path d="M2080 1460 c-144 -216 -230 -355 -227 -364 8 -21 229 -296 238 -296
6 0 469 786 517 876 10 20 3 24 -131 77 -78 32 -147 57 -153 57 -6 0 -116
-157 -244 -350z"/>
<path d="M599 1566 c-114 -50 -214 -119 -305 -210 -129 -130 -216 -277 -265
-451 -22 -76 -23 -101 -27 -467 l-3 -388 25 -25 25 -25 801 0 800 0 0 420 c0
231 -2 420 -5 420 -2 0 -52 -60 -111 -132 -58 -73 -113 -137 -122 -142 -24
-14 -72 -9 -92 9 -9 8 -149 243 -311 520 -234 401 -298 505 -314 505 -11 0
-54 -16 -96 -34z"/>
<path d="M2463 1089 c-247 -425 -303 -514 -327 -524 -52 -22 -78 -4 -193 141
-58 74 -110 134 -115 134 -4 0 -8 -189 -8 -420 l0 -420 791 0 791 0 -50 57
c-150 175 -251 383 -304 626 -19 86 -22 133 -22 302 0 172 4 215 24 305 38
172 41 151 -37 200 -73 47 -207 110 -235 110 -11 0 -110 -160 -315 -511z
m-302 -758 c17 -18 29 -40 29 -56 0 -37 -50 -85 -88 -85 -41 0 -82 43 -82 85
0 22 9 41 26 59 36 35 77 34 115 -3z"/>
</g>
</svg>
