<?xml version="1.0" standalone="no"?>
<!DOCTYPE svg PUBLIC "-//W3C//DTD SVG 20010904//EN"
 "http://www.w3.org/TR/2001/REC-SVG-20010904/DTD/svg10.dtd">
<svg version="1.0" xmlns="http://www.w3.org/2000/svg"
 width="512.000000pt" height="512.000000pt" viewBox="0 0 512.000000 512.000000"
 preserveAspectRatio="xMidYMid meet">
<metadata>
Created by potrace 1.16, written by Peter Selinger 2001-2019
</metadata>
<g transform="translate(0.000000,512.000000) scale(0.100000,-0.100000)"
fill="#000000" stroke="none">
<path d="M1673 5100 c-113 -40 -187 -112 -258 -248 -61 -120 -110 -173 -193
-214 -54 -27 -81 -34 -145 -37 -96 -4 -147 11 -257 78 -121 74 -164 86 -300
86 -92 -1 -126 -5 -173 -23 -158 -58 -278 -182 -327 -341 -28 -88 -28 -263 0
-353 21 -69 80 -167 124 -208 22 -20 30 -22 44 -12 143 100 287 142 486 142
129 0 158 13 246 110 100 111 160 140 313 150 110 7 171 23 193 51 6 8 23 51
38 95 66 201 219 376 408 467 l86 42 -5 70 c-3 39 -1 87 5 107 10 38 10 38
-26 48 -60 16 -200 11 -259 -10z m-1053 -700 c51 -11 200 -80 200 -92 0 -7
-57 -127 -65 -136 -1 -1 -33 12 -70 30 -112 52 -206 49 -283 -9 -18 -14 -38
-35 -44 -48 l-10 -23 -67 30 c-36 16 -70 33 -75 38 -12 12 26 71 74 114 95 86
221 121 340 96z"/>
<path d="M2157 5088 c-37 -36 -53 -90 -38 -130 l9 -24 144 4 c78 2 144 6 146
7 2 2 -13 35 -32 74 -41 81 -70 101 -145 101 -42 0 -55 -5 -84 -32z"/>
<path d="M2797 5104 c-17 -9 -40 -41 -63 -85 -19 -39 -34 -72 -32 -74 2 -2 68
-4 148 -6 l144 -4 9 30 c13 45 -11 104 -52 132 -40 27 -111 30 -154 7z"/>
<path d="M2095 4756 c-184 -42 -347 -167 -434 -336 -81 -154 -91 -277 -48
-563 14 -93 27 -171 29 -173 3 -2 20 1 39 6 18 6 46 10 60 10 l27 0 4 128 c3
117 6 132 35 194 33 71 100 151 152 181 l30 18 36 -70 35 -70 -49 -49 c-44
-44 -81 -115 -68 -129 10 -9 191 34 242 58 48 23 82 54 190 171 117 128 313
131 437 7 27 -27 53 -49 57 -49 5 0 33 11 63 25 142 66 313 3 385 -143 24 -49
28 -71 32 -164 l3 -108 27 0 c14 0 42 -4 60 -10 19 -5 36 -8 39 -6 11 12 54
355 54 436 1 177 -63 332 -187 455 -80 80 -151 125 -257 163 l-73 27 -430 2
c-330 2 -444 -1 -490 -11z"/>
<path d="M2545 4055 c-24 -9 -52 -29 -70 -52 -123 -157 -224 -213 -477 -263
l-58 -11 0 -334 c0 -204 4 -355 11 -387 6 -29 27 -86 46 -127 43 -91 140 -191
231 -239 l62 -33 0 -107 c0 -59 8 -171 17 -249 l17 -143 236 0 236 0 17 143
c9 78 17 190 17 249 l0 107 63 33 c90 48 187 148 230 239 19 41 40 98 46 127
7 33 11 205 11 465 0 396 -1 413 -20 445 -25 41 -81 66 -128 57 -19 -3 -82
-30 -140 -58 -58 -29 -107 -47 -109 -42 -2 6 -20 41 -41 80 -51 96 -114 128
-197 100z m-294 -368 c43 -33 50 -87 14 -122 -51 -52 -138 -16 -138 57 0 57
79 100 124 65z m715 -10 c55 -47 20 -137 -53 -137 -39 0 -83 37 -83 70 0 26
25 77 42 83 30 12 69 5 94 -16z m-361 -187 l-33 -97 54 -26 54 -27 -35 -70
c-19 -38 -37 -70 -40 -70 -3 0 -56 25 -119 57 l-113 56 54 163 54 162 78 -26
79 -25 -33 -97z m-128 -476 c42 -18 124 -18 167 0 18 8 50 34 71 59 l38 46 69
-35 c37 -19 68 -38 68 -42 0 -15 -40 -71 -76 -107 -22 -21 -68 -52 -104 -69
-57 -27 -75 -31 -150 -31 -74 0 -93 4 -151 31 -36 17 -83 48 -103 69 -36 36
-76 92 -76 107 0 4 30 23 68 42 l67 34 39 -45 c22 -25 55 -52 73 -59z"/>
<path d="M1721 3530 c-18 -4 -45 -17 -60 -27 -132 -98 -86 -293 77 -328 l32
-7 0 186 c0 102 -3 186 -7 185 -5 -1 -23 -5 -42 -9z"/>
<path d="M3350 3354 l0 -186 33 7 c73 16 128 66 147 133 12 46 12 48 0 94 -19
68 -75 118 -147 131 l-33 7 0 -186z"/>
<path d="M1033 2815 c-79 -22 -131 -51 -195 -113 -224 -213 -162 -586 119
-719 66 -32 89 -38 163 -41 193 -9 353 85 433 255 27 58 32 82 35 165 5 113
-16 190 -73 275 -101 151 -304 226 -482 178z m194 -282 c72 -34 109 -129 79
-207 -44 -114 -177 -150 -266 -70 -49 44 -64 82 -58 145 12 118 135 185 245
132z"/>
<path d="M3865 2816 c-127 -32 -237 -122 -296 -241 -33 -68 -34 -74 -34 -190
0 -114 2 -123 32 -187 77 -162 229 -258 409 -258 396 0 592 489 306 762 -32
31 -77 65 -100 77 -95 48 -215 62 -317 37z m195 -288 c50 -34 72 -71 78 -127
6 -63 -9 -101 -58 -145 -89 -80 -222 -44 -266 70 -29 77 6 172 77 207 50 25
129 22 169 -5z"/>
<path d="M281 2470 c-105 -22 -205 -100 -251 -195 -35 -75 -40 -209 -9 -290
41 -109 177 -215 275 -215 25 0 25 1 -14 45 -172 195 -111 490 125 607 43 21
60 34 51 39 -23 13 -131 18 -177 9z"/>
<path d="M4697 2471 c-20 -4 -40 -10 -42 -13 -3 -3 24 -19 59 -37 235 -115
295 -411 124 -606 -39 -44 -39 -45 -14 -45 98 0 234 106 274 213 42 111 25
250 -40 345 -73 106 -233 170 -361 143z"/>
<path d="M496 2285 c-83 -29 -145 -119 -146 -213 0 -82 21 -117 144 -242 l114
-115 56 -333 c47 -282 60 -342 86 -397 56 -116 161 -211 286 -256 84 -31 244
-31 328 0 123 44 194 108 317 281 41 58 78 110 82 116 4 6 -5 45 -19 85 -94
274 -81 519 43 812 25 59 43 110 40 113 -7 8 -115 -85 -171 -147 -79 -87 -124
-165 -302 -521 -93 -186 -171 -338 -174 -338 -3 0 -16 28 -28 63 -13 34 -91
199 -174 367 -143 291 -152 306 -195 335 -95 63 -194 211 -227 339 -9 33 -17
60 -18 62 -2 1 -20 -4 -42 -11z"/>
<path d="M4574 2272 c-12 -60 -48 -150 -82 -206 -38 -63 -122 -153 -170 -181
-23 -14 -58 -77 -180 -324 -83 -168 -161 -334 -174 -368 -12 -35 -25 -63 -28
-63 -3 0 -81 152 -174 338 -178 356 -223 434 -302 521 -56 62 -164 155 -171
147 -3 -3 15 -54 40 -113 125 -297 137 -543 38 -827 -12 -32 -18 -63 -14 -70
33 -55 165 -231 202 -269 103 -107 206 -150 361 -150 83 0 118 5 164 22 125
45 230 140 286 256 26 55 39 115 86 397 l56 333 114 115 c64 65 120 131 129
152 50 122 -21 272 -146 308 -26 8 -30 6 -35 -18z"/>
<path d="M2090 2269 c-21 -8 -39 -43 -108 -207 -116 -274 -126 -311 -126 -502
0 -182 16 -252 90 -411 l47 -99 567 0 567 0 47 99 c74 159 90 229 90 411 0
191 -10 228 -126 502 -79 188 -85 198 -116 209 -18 6 -35 9 -36 7 -2 -1 -15
-94 -29 -204 -29 -232 -47 -283 -127 -363 -153 -153 -387 -153 -540 0 -80 80
-98 132 -128 366 -15 122 -30 203 -36 202 -6 0 -22 -5 -36 -10z"/>
<path d="M2354 1918 c17 -84 113 -158 206 -158 93 0 189 74 206 158 l7 32
-213 0 -212 0 6 -32z"/>
<path d="M2030 705 l0 -185 530 0 530 0 0 185 0 185 -530 0 -530 0 0 -185z
m569 70 c72 -37 43 -148 -39 -148 -84 0 -110 111 -35 151 27 15 41 15 74 -3z"/>
<path d="M1929 297 c-25 -34 -56 -78 -67 -98 -25 -41 -72 -162 -72 -184 0 -13
98 -15 770 -15 672 0 770 2 770 15 0 22 -47 143 -72 184 -11 20 -42 64 -67 98
l-46 63 -585 0 -585 0 -46 -63z"/>
</g>
</svg>
