<?xml version="1.0" standalone="no"?>
<!DOCTYPE svg PUBLIC "-//W3C//DTD SVG 20010904//EN"
 "http://www.w3.org/TR/2001/REC-SVG-20010904/DTD/svg10.dtd">
<svg version="1.0" xmlns="http://www.w3.org/2000/svg"
 width="512.000000pt" height="512.000000pt" viewBox="0 0 512.000000 512.000000"
 preserveAspectRatio="xMidYMid meet">
<metadata>
Created by potrace 1.16, written by Peter Selinger 2001-2019
</metadata>
<g transform="translate(0.000000,512.000000) scale(0.100000,-0.100000)"
fill="#000000" stroke="none">
<path d="M3092 4780 c-245 -65 -449 -270 -512 -516 -15 -58 -20 -111 -20 -210
l0 -133 33 6 c250 47 650 258 1052 557 95 70 130 81 163 48 9 -9 84 -151 166
-315 180 -362 186 -367 186 -164 0 100 -5 153 -20 211 -63 248 -268 453 -516
516 -110 28 -424 28 -532 0z"/>
<path d="M4265 4373 c26 -69 45 -195 51 -340 l7 -161 41 -35 c23 -19 55 -58
71 -88 27 -49 30 -62 30 -149 0 -87 -3 -100 -30 -149 -35 -63 -90 -113 -152
-138 l-44 -18 3 -145 c3 -133 6 -149 30 -200 51 -105 142 -185 243 -216 l46
-13 -3 697 -3 697 -29 60 c-38 76 -115 154 -188 188 -67 32 -83 34 -73 10z"/>
<path d="M3679 4327 c-298 -224 -739 -467 -931 -513 l-28 -6 0 -235 c0 -269 7
-310 73 -438 79 -153 242 -281 408 -320 82 -19 236 -19 317 0 177 42 339 173
420 340 56 113 62 158 62 434 l0 251 -130 260 c-72 143 -134 260 -139 260 -4
0 -28 -15 -52 -33z m-603 -531 c28 -28 34 -42 34 -76 0 -34 -6 -48 -34 -76
-28 -28 -42 -34 -76 -34 -34 0 -48 6 -76 34 -28 28 -34 42 -34 76 0 34 6 48
34 76 28 28 42 34 76 34 34 0 48 -6 76 -34z m720 0 c28 -28 34 -42 34 -76 0
-34 -6 -48 -34 -76 -28 -28 -42 -34 -76 -34 -34 0 -48 6 -76 34 -28 28 -34 42
-34 76 0 34 6 48 34 76 28 28 42 34 76 34 34 0 48 -6 76 -34z m-196 -448 l32
-58 -49 -21 c-86 -37 -189 -58 -327 -65 l-136 -7 0 80 0 81 153 4 c131 4 161
8 217 30 36 13 68 22 71 19 4 -3 21 -32 39 -63z"/>
<path d="M2472 3740 c-48 -30 -72 -75 -72 -140 0 -87 60 -160 133 -160 l27 0
0 160 0 160 -27 0 c-16 0 -43 -9 -61 -20z"/>
<path d="M4160 3600 l0 -160 28 0 c72 0 132 73 132 160 0 87 -60 160 -132 160
l-28 0 0 -160z"/>
<path d="M3118 2518 c-4 -172 -14 -213 -58 -241 -19 -11 -20 -24 -20 -259 0
-226 2 -252 21 -303 97 -260 501 -260 598 0 19 51 21 77 21 299 l0 242 -29 28
c-40 38 -51 96 -51 261 0 74 -3 135 -7 135 -5 -1 -35 -7 -68 -15 -33 -8 -107
-15 -165 -15 -58 0 -132 7 -165 15 -33 8 -63 14 -66 15 -4 0 -9 -73 -11 -162z"/>
<path d="M560 1920 l0 -320 160 0 160 0 0 320 0 320 -160 0 -160 0 0 -320z"/>
<path d="M2240 1920 l0 -320 160 0 160 0 0 320 0 320 -160 0 -160 0 0 -320z"/>
<path d="M2794 2223 l-31 -4 -22 -137 c-17 -108 -21 -181 -21 -345 0 -231 -8
-271 -55 -283 -15 -4 -32 -19 -41 -38 -8 -17 -30 -56 -49 -86 -67 -104 -79
-151 -80 -290 0 -135 11 -184 60 -273 l27 -47 776 2 777 3 32 60 c98 184 79
411 -49 591 -27 38 -33 67 -93 425 -36 211 -65 387 -65 391 0 3 -19 9 -42 13
-24 3 -50 9 -59 11 -15 4 -17 -19 -22 -223 -5 -245 -14 -294 -65 -383 -87
-150 -239 -240 -408 -240 -176 0 -328 88 -416 240 -52 89 -60 137 -65 388 l-6
232 -26 -2 c-14 0 -40 -3 -57 -5z"/>
<path d="M4120 2156 c0 -8 25 -165 55 -349 51 -313 57 -339 85 -381 73 -107
120 -260 120 -386 0 -122 -54 -297 -119 -389 -19 -26 -21 -44 -21 -180 l0
-151 160 0 160 0 -2 803 c-3 762 -4 804 -22 837 -61 114 -135 162 -293 191
-127 23 -123 23 -123 5z"/>
<path d="M1337 2153 c-2 -5 -16 -58 -31 -119 l-27 -111 78 -189 78 -189 5
-550 5 -550 23 -38 c36 -57 95 -87 172 -87 80 0 138 31 175 94 24 41 25 50 25
202 0 112 -12 275 -40 554 -37 364 -40 418 -40 693 l0 297 -209 0 c-116 0
-212 -3 -214 -7z"/>
<path d="M1040 1920 l0 -80 56 0 c50 0 55 2 48 18 -5 9 -9 45 -9 80 l1 62 -48
0 -48 0 0 -80z"/>
<path d="M1920 1920 l0 -80 80 0 80 0 0 80 0 80 -80 0 -80 0 0 -80z"/>
<path d="M1947 1625 c-16 -33 -27 -73 -27 -98 -1 -60 72 -801 79 -809 9 -11
363 509 387 568 11 28 32 72 47 99 15 26 27 49 27 51 0 2 -65 4 -144 4 -81 0
-157 5 -176 11 -43 16 -60 59 -60 154 l0 75 -53 0 -53 0 -27 -55z"/>
<path d="M2630 440 l0 -120 725 0 725 0 0 120 0 120 -725 0 -725 0 0 -120z"/>
</g>
</svg>
