<?xml version="1.0" standalone="no"?>
<!DOCTYPE svg PUBLIC "-//W3C//DTD SVG 20010904//EN"
 "http://www.w3.org/TR/2001/REC-SVG-20010904/DTD/svg10.dtd">
<svg version="1.0" xmlns="http://www.w3.org/2000/svg"
 width="512.000000pt" height="512.000000pt" viewBox="0 0 512.000000 512.000000"
 preserveAspectRatio="xMidYMid meet">
<metadata>
Created by potrace 1.16, written by Peter Selinger 2001-2019
</metadata>
<g transform="translate(0.000000,512.000000) scale(0.100000,-0.100000)"
fill="#000000" stroke="none">
<path d="M1450 5101 c-248 -53 -486 -205 -642 -411 -62 -81 -150 -261 -177
-360 -56 -211 -49 -438 20 -641 42 -124 110 -236 300 -492 168 -227 189 -260
178 -275 -8 -9 -32 -39 -55 -67 -210 -256 -347 -578 -399 -935 -21 -137 -16
-445 8 -575 102 -547 408 -1005 862 -1290 l88 -55 927 0 927 0 88 55 c452 284
761 746 861 1286 25 133 30 430 10 574 -50 355 -189 682 -400 940 -23 28 -47
58 -55 67 -11 15 10 48 178 275 190 256 258 368 300 492 69 203 76 430 20 641
-27 99 -115 279 -177 360 -158 208 -395 359 -647 411 -85 18 -152 19 -1110 18
-944 0 -1026 -2 -1105 -18z m2041 -1032 l50 -101 -33 -47 c-340 -483 -414
-581 -433 -577 -11 2 -69 16 -128 30 -241 56 -533 56 -774 0 -59 -14 -117 -28
-128 -30 -19 -4 -93 94 -433 577 l-33 47 50 101 51 101 880 0 880 0 51 -101z
m-179 -1860 c82 -22 172 -73 221 -126 l28 -30 -83 -74 c-46 -40 -91 -79 -100
-87 -15 -13 -22 -10 -60 22 -79 68 -205 84 -294 38 -81 -42 -117 -108 -117
-218 -1 -175 118 -273 292 -243 l61 11 0 124 0 124 140 0 140 0 0 -199 0 -200
-52 -29 c-114 -64 -267 -98 -401 -89 -213 14 -374 113 -452 278 -137 292 6
607 318 699 91 27 257 26 359 -1z m-1400 -174 l3 -174 158 174 159 175 170 0
170 0 -96 -105 c-53 -58 -139 -152 -192 -209 l-95 -105 193 -258 c107 -142
197 -264 202 -270 6 -10 -32 -13 -173 -13 l-181 0 -120 160 c-66 88 -124 160
-129 160 -4 0 -22 -18 -39 -39 -32 -40 -32 -40 -32 -160 l0 -121 -160 0 -160
0 0 480 0 480 160 0 160 0 2 -175z"/>
</g>
</svg>
