<?xml version="1.0" standalone="no"?>
<!DOCTYPE svg PUBLIC "-//W3C//DTD SVG 20010904//EN"
 "http://www.w3.org/TR/2001/REC-SVG-20010904/DTD/svg10.dtd">
<svg version="1.0" xmlns="http://www.w3.org/2000/svg"
 width="512.000000pt" height="512.000000pt" viewBox="0 0 512.000000 512.000000"
 preserveAspectRatio="xMidYMid meet">
<metadata>
Created by potrace 1.16, written by Peter Selinger 2001-2019
</metadata>
<g transform="translate(0.000000,512.000000) scale(0.100000,-0.100000)"
fill="#000000" stroke="none">
<path d="M3042 4868 c-19 -19 -16 -163 4 -182 18 -18 47 -20 75 -6 16 9 19 22
19 93 0 92 -8 107 -55 107 -17 0 -36 -5 -43 -12z"/>
<path d="M3379 4795 c-23 -13 -47 -42 -92 -117 -10 -15 -17 -30 -17 -33 0 -12
34 -3 82 21 28 14 54 22 58 17 4 -4 19 -44 34 -88 36 -105 80 -171 134 -206
48 -31 121 -46 146 -32 14 8 10 14 -24 42 -45 36 -73 85 -120 216 -42 116 -65
158 -100 178 -34 20 -66 21 -101 2z"/>
<path d="M2985 4616 c-178 -82 -195 -329 -31 -431 44 -27 58 -30 131 -30 73 0
87 3 131 30 125 78 153 259 56 367 -76 85 -189 110 -287 64z"/>
<path d="M2972 4129 c-55 -10 -65 -19 -271 -241 -138 -149 -180 -188 -200
-188 -65 -1 -511 -47 -517 -53 -4 -3 11 -38 33 -76 l41 -69 -47 -6 c-25 -3
-73 -8 -106 -12 -154 -15 -158 -22 -230 -391 -30 -153 -55 -290 -55 -305 0
-56 85 -117 143 -103 56 14 64 36 120 316 l53 264 134 16 135 16 63 -61 62
-61 -242 -310 c-368 -473 -338 -431 -338 -476 0 -55 25 -98 67 -115 71 -30 73
-28 389 378 159 204 292 376 295 381 4 5 37 -4 75 -21 118 -51 225 -64 336
-41 29 6 54 13 56 14 2 2 -33 108 -77 235 -68 194 -79 235 -69 248 7 9 84 93
172 187 87 93 163 180 169 193 9 19 16 22 36 17 14 -4 121 -29 236 -56 180
-42 215 -47 243 -38 65 21 94 118 52 172 -26 32 -25 32 -390 117 -168 39 -309
72 -315 74 -5 1 -29 -1 -53 -5z"/>
<path d="M380 4005 c-11 -13 -10 -19 6 -37 19 -22 1267 -1352 1330 -1418 18
-18 35 -32 38 -29 6 5 -1335 1491 -1350 1496 -6 2 -17 -3 -24 -12z"/>
<path d="M3777 3032 c-720 -234 -1304 -428 -1299 -430 7 -2 2326 707 2595 794
40 13 48 20 45 37 -2 12 -10 23 -18 24 -8 1 -604 -190 -1323 -425z"/>
<path d="M810 2810 c-6 -12 -10 -23 -8 -24 28 -22 653 -394 657 -391 2 3 2 7
0 8 -23 19 -614 420 -624 423 -7 3 -19 -4 -25 -16z"/>
<path d="M3473 2536 c-205 -50 -373 -94 -373 -97 0 -4 30 -1 68 6 37 7 207 39
377 71 171 31 311 58 312 59 1 0 -1 13 -5 27 l-7 25 -372 -91z"/>
<path d="M2821 2597 c-33 -11 -99 -79 -326 -329 l-70 -78 -80 12 c-69 10 -88
9 -138 -6 -69 -20 -128 -74 -160 -145 -30 -67 -29 -172 3 -228 37 -67 81 -91
218 -118 150 -30 252 -69 336 -129 137 -97 191 -202 217 -416 l12 -101 -59
-60 c-76 -77 -136 -122 -242 -178 -47 -25 -94 -58 -105 -72 -22 -31 -26 -103
-7 -148 17 -42 72 -75 114 -68 78 13 252 113 364 210 67 59 60 57 159 31 9 -2
11 -22 6 -71 -3 -37 -8 -71 -12 -75 -12 -13 -198 -69 -316 -94 -150 -32 -169
-40 -200 -76 -48 -57 -42 -155 13 -199 23 -18 36 -21 92 -16 93 8 276 50 421
98 164 54 220 82 242 118 42 71 41 673 -2 879 -28 133 -86 286 -141 368 l-20
32 97 4 c109 4 142 18 163 68 19 45 15 116 -9 148 -37 52 -59 56 -289 45 -180
-8 -210 -7 -232 6 -14 9 -56 32 -93 52 l-68 36 127 139 c70 76 136 153 146
169 60 99 -50 230 -161 192z"/>
<path d="M0 2366 c0 -22 5 -24 83 -34 45 -6 381 -47 747 -93 l666 -82 -29 -56
c-26 -50 -28 -64 -25 -136 4 -94 23 -138 83 -198 108 -108 304 -103 407 11 52
58 70 97 76 167 14 176 -113 315 -289 315 -60 0 -143 -30 -179 -65 l-28 -26
-735 110 c-405 61 -745 111 -756 111 -15 0 -21 -6 -21 -24z"/>
<path d="M3768 2241 c-394 -15 -719 -29 -722 -32 -6 -6 342 -3 1172 7 l472 6
0 24 c0 24 -1 24 -102 23 -57 -1 -426 -14 -820 -28z"/>
</g>
</svg>
