<?xml version="1.0" standalone="no"?>
<!DOCTYPE svg PUBLIC "-//W3C//DTD SVG 20010904//EN"
 "http://www.w3.org/TR/2001/REC-SVG-20010904/DTD/svg10.dtd">
<svg version="1.0" xmlns="http://www.w3.org/2000/svg"
 width="512.000000pt" height="512.000000pt" viewBox="0 0 512.000000 512.000000"
 preserveAspectRatio="xMidYMid meet">
<metadata>
Created by potrace 1.16, written by Peter Selinger 2001-2019
</metadata>
<g transform="translate(0.000000,512.000000) scale(0.100000,-0.100000)"
fill="#000000" stroke="none">
<path d="M1829 4535 l731 -585 731 585 731 585 -1462 0 -1462 0 731 -585z"/>
<path d="M475 4439 c-203 -281 -371 -515 -373 -520 -2 -5 400 -9 1013 -9 610
0 1015 4 1013 9 -2 7 -1276 1032 -1282 1031 0 0 -167 -230 -371 -511z"/>
<path d="M3634 4439 c-352 -281 -640 -515 -642 -520 -2 -5 403 -9 1012 -9 559
0 1016 3 1016 6 0 5 -633 881 -716 991 l-32 43 -638 -511z"/>
<path d="M103 3605 c7 -18 1904 -2804 1923 -2825 8 -8 14 -10 14 -5 -1 6 -178
647 -394 1425 l-392 1415 -578 3 c-506 2 -577 0 -573 -13z"/>
<path d="M1562 3608 c3 -7 227 -822 498 -1810 272 -989 497 -1798 500 -1798 3
0 228 809 500 1798 271 988 495 1803 498 1810 3 9 -201 12 -998 12 -797 0
-1001 -3 -998 -12z"/>
<path d="M3865 3608 c-17 -47 -784 -2832 -781 -2835 2 -2 37 44 78 104 254
367 1850 2716 1854 2728 5 13 -64 15 -570 15 -452 0 -578 -3 -581 -12z"/>
</g>
</svg>
